<svg xmlns="http://www.w3.org/2000/svg" viewBox="0 0 64 64" width="64" height="64">
  <rect width="64" height="64" rx="14" fill="#07080b"/>
  <rect x="2" y="2" width="60" height="60" rx="12" fill="none" stroke="rgba(255,24,1,0.5)" stroke-width="2"/>
  <g transform="translate(12, 14) skewX(-14)">
    <rect x="0" y="0" width="8" height="8" fill="#ff1801"/>
    <rect x="8" y="0" width="8" height="8" fill="#ffffff"/>
    <rect x="16" y="0" width="8" height="8" fill="#ff1801"/>
    <rect x="24" y="0" width="8" height="8" fill="#ffffff"/>
    
    <rect x="0" y="8" width="8" height="8" fill="#ffffff"/>
    <rect x="8" y="8" width="8" height="8" fill="#ff1801"/>
    <rect x="16" y="8" width="8" height="8" fill="#ffffff"/>
    <rect x="24" y="8" width="8" height="8" fill="#ff1801"/>

    <rect x="0" y="16" width="8" height="8" fill="#ff1801"/>
    <rect x="8" y="16" width="8" height="8" fill="#ffffff"/>
    <rect x="16" y="16" width="8" height="8" fill="#ff1801"/>
    <rect x="24" y="16" width="8" height="8" fill="#ffffff"/>

    <rect x="0" y="24" width="8" height="8" fill="#ffffff"/>
    <rect x="8" y="24" width="8" height="8" fill="#ff1801"/>
    <rect x="16" y="24" width="8" height="8" fill="#ffffff"/>
    <rect x="24" y="24" width="8" height="8" fill="#ff1801"/>
  </g>
</svg>
